<svg width="22" height="24" viewBox="0 0 22 24" fill="none" xmlns="http://www.w3.org/2000/svg">
<path d="M10.9702 0.000446666C10.7747 0.00716809 10.5865 0.0766571 10.4331 0.19876L1.7474 7.08926C0.645014 7.96409 0 9.30089 0 10.7142V22.4616C0 23.3007 0.69447 24 1.52778 24H7.63889C8.4722 24 9.16667 23.3007 9.16667 22.4616V16.3078C9.16667 16.1263 9.29192 16.0002 9.47222 16.0002H12.5278C12.7081 16.0002 12.8333 16.1263 12.8333 16.3078V22.4616C12.8333 23.3007 13.5278 24 14.3611 24H20.4722C21.3055 24 22 23.3007 22 22.4616V10.7142C22 9.30089 21.355 7.96409 20.2526 7.08926L11.5669 0.19876C11.3974 0.0639168 11.1861 -0.00631706 10.9702 0.000446666ZM11 2.09897L19.1187 8.53995C19.7812 9.06571 20.1667 9.86538 20.1667 10.7142V22.1539H14.6667V16.3078C14.6667 15.1294 13.698 14.154 12.5278 14.154H9.47222C8.30197 14.154 7.33333 15.1294 7.33333 16.3078V22.1539H1.83333V10.7142C1.83333 9.86538 2.21879 9.06571 2.88129 8.53995L11 2.09897Z" fill="black"/>
</svg>
